<svg width="479.65625px" height="114.8px" xmlns="http://www.w3.org/2000/svg" viewBox="10.171875 17.6 479.65625 114.8" style="background: rgba(0, 0, 0, 0);" preserveAspectRatio="xMidYMid"><defs><linearGradient id="editing-shiny-gradient" x1="0.7795964517353736" x2="0.22040354826462638" y1="0.9145187862775207" y2="0.0854812137224793" gradientUnits="objectBoundingBox"><stop offset="0.0" stop-color="#ffb200"></stop><stop offset="0.5" stop-color="#e10057"></stop><stop offset="1.0" stop-color="#5A1A80"></stop></linearGradient><linearGradient id="editing-shiny-gradient2" x1="0" x2="0" y1="0" y2="1"><stop offset="0.2" stop-color="#fff" stop-opacity="0.8"></stop><stop offset="0.8" stop-color="#fff" stop-opacity="0"></stop></linearGradient><filter id="editing-shiny2" x="-100%" y="-100%" width="300%" height="300%"><feMorphology operator="erode" radius="2"></feMorphology></filter><filter id="editing-shiny" x="-100%" y="-100%" width="300%" height="300%"><feFlood flood-color="#fff" result="flood"></feFlood><feConvolveMatrix in="SourceGraphic" result="conv" order="8,8" divisor="1" kernelMatrix="0 0 0 0 0 0 0 0 0 0 0 1 1 0 0 0 0 0 0 1 1 0 0 0 0 0 1 0 0 1 0 0 0 0 1 0 0 1 0 0 0 1 0 0 0 0 1 0 0 1 1 0 0 1 1 0 0 0 0 1 1 0 0 0 "></feConvolveMatrix><feOffset dx="0" dy="4" in="conv" result="offset"></feOffset><feComposite operator="in" in="flood" in2="offset" result="comp"></feComposite><feGaussianBlur in="offset" stdDeviation="3" result="shadow"></feGaussianBlur><feColorMatrix in="shadow" type="matrix" values="0.7 0 0 0 0  0 0.7 0 0 0  0 0 0.7 0 0  0 0 0 0.3 0" result="dark-shadow"></feColorMatrix><feOffset dx="0" dy="4" in="dark-shadow" result="offset-shadow"></feOffset><feOffset dx="0" dy="2" in="conv" result="offset-2"></feOffset><feComposite operator="out" in="offset" in2="offset-2" result="edge-diff"></feComposite><feGaussianBlur in="edge-diff" stdDeviation="1" result="edge-blur"></feGaussianBlur><feColorMatrix in="edge-blur" result="edge-shadow" type="matrix" values="0 0 0 0 0  0 0 0 0 0  0 0 0 0 0  0 0 0 0.5 0"></feColorMatrix><feComposite operator="in" in="edge-shadow" in2="offset" result="edge-shadow-in"></feComposite><feOffset dx="0" dy="1" in="edge-shadow-in" result="edge-shadow-final"></feOffset><feMerge result="out"><feMergeNode in="offset-shadow"></feMergeNode><feMergeNode in="comp"></feMergeNode><feMergeNode in="edge-shadow-final"></feMergeNode><feMergeNode in="SourceGraphic"></feMergeNode></feMerge></filter></defs><g filter="url(#editing-shiny)"><g transform="translate(81.01497560739517, 100.72999954223633)"><path d="M20.81 0.71L20.81 0.71Q11.17 0.71 5.94-4.18L5.94-4.18L5.94-4.18Q0.71-9.08 0.71-19.84L0.71-19.84L0.71-19.84Q0.71-40.39 20.71-40.39L20.71-40.39L20.71-40.39Q25.55-40.39 29.71-39.22L29.71-39.22L29.71-39.22Q33.86-38.05 35.90-36.62L35.90-36.62L35.90-23.87L23.66-23.87L23.66-27.54L23.66-27.54Q23.66-29.48 22.80-30.40L22.80-30.40L22.80-30.40Q21.93-31.31 20.20-31.31L20.20-31.31L20.20-31.31Q18.46-31.31 17.60-30.40L17.60-30.40L17.60-30.40Q16.73-29.48 16.73-27.54L16.73-27.54L16.73-12.14L16.73-12.14Q16.73-10.20 17.60-9.28L17.60-9.28L17.60-9.28Q18.46-8.36 20.20-8.36L20.20-8.36L20.20-8.36Q21.93-8.36 22.80-9.28L22.80-9.28L22.80-9.28Q23.66-10.20 23.66-12.14L23.66-12.14L23.66-16.27L35.90-16.27L35.90-3.06L35.90-3.06Q33.81-1.63 29.71-0.46L29.71-0.46L29.71-0.46Q25.60 0.71 20.81 0.71L20.81 0.71ZM65.23-8.36L67.47-8.36L67.47 0L54.01 0L54.01-3.47L54.01-3.47Q52.89-1.84 50.87-0.56L50.87-0.56L50.87-0.56Q48.86 0.71 45.95 0.71L45.95 0.71L45.95 0.71Q42.13 0.71 39.93-1.33L39.93-1.33L39.93-1.33Q37.74-3.37 37.74-7.09L37.74-7.09L37.74-7.09Q37.74-16.73 54.11-16.98L54.11-16.98L54.11-16.98Q53.96-18.72 52.79-19.35L52.79-19.35L52.79-19.35Q51.61-19.99 48.81-19.99L48.81-19.99L48.81-19.99Q46.51-19.99 43.89-19.51L43.89-19.51L43.89-19.51Q41.26-19.02 39.07-18.21L39.07-18.21L39.07-27.59L39.07-27.59Q41.77-28.25 44.93-28.66L44.93-28.66L44.93-28.66Q48.09-29.07 51.10-29.07L51.10-29.07L51.10-29.07Q58.70-29.07 61.97-26.32L61.97-26.32L61.97-26.32Q65.23-23.56 65.23-17.80L65.23-17.80L65.23-8.36ZM54.01-11.63L54.01-11.93L54.01-11.93Q51.71-11.93 50.46-11.32L50.46-11.32L50.46-11.32Q49.22-10.71 49.22-9.28L49.22-9.28L49.22-9.28Q49.22-8.42 49.75-7.88L49.75-7.88L49.75-7.88Q50.29-7.34 51.26-7.34L51.26-7.34L51.26-7.34Q52.58-7.34 53.30-8.47L53.30-8.47L53.30-8.47Q54.01-9.59 54.01-11.63L54.01-11.63ZM100.73-8.36L102.97-8.36L102.97 0L86.85 0L86.85-8.36L89.00-8.36L89.00-16.73L89.00-16.73Q89.00-18.41 88.28-19.20L88.28-19.20L88.28-19.20Q87.57-19.99 86.14-19.99L86.14-19.99L86.14-19.99Q83.08-19.99 83.08-16.73L83.08-16.73L83.08-8.36L85.22-8.36L85.22 0L69.11 0L69.11-8.36L71.35-8.36L71.35-19.99L69.11-19.99L69.11-28.36L83.08-28.36L83.08-24.38L83.08-24.38Q86.75-29.07 92.26-29.07L92.26-29.07L92.26-29.07Q96.49-29.07 98.61-26.42L98.61-26.42L98.61-26.42Q100.73-23.77 100.73-19.13L100.73-19.13L100.73-8.36ZM114.65 0.71L114.65 0.71Q109.45 0.71 106.82-3.16L106.82-3.16L106.82-3.16Q104.19-7.04 104.19-14.18L104.19-14.18L104.19-14.18Q104.19-21.32 106.82-25.19L106.82-25.19L106.82-25.19Q109.45-29.07 114.65-29.07L114.65-29.07L114.65-29.07Q117.25-29.07 119.26-27.80L119.26-27.80L119.26-27.80Q121.28-26.52 122.55-24.89L122.55-24.89L122.55-31.31L119.54-31.31L119.54-39.68L134.28-39.68L134.28-8.36L136.53-8.36L136.53 0L122.55 0L122.55-3.47L122.55-3.47Q121.28-1.84 119.26-0.56L119.26-0.56L119.26-0.56Q117.25 0.71 114.65 0.71L114.65 0.71ZM119.60-8.36L119.60-8.36Q121.07-8.36 121.81-9.15L121.81-9.15L121.81-9.15Q122.55-9.95 122.55-11.63L122.55-11.63L122.55-16.73L122.55-16.73Q122.55-18.41 121.81-19.20L121.81-19.20L121.81-19.20Q121.07-19.99 119.60-19.99L119.60-19.99L119.60-19.99Q118.12-19.99 117.38-19.20L117.38-19.20L117.38-19.20Q116.64-18.41 116.64-16.73L116.64-16.73L116.64-11.63L116.64-11.63Q116.64-9.95 117.38-9.15L117.38-9.15L117.38-9.15Q118.12-8.36 119.60-8.36L119.60-8.36ZM154.68-28.36L168.86-28.36L168.86-19.99L166.92-19.99L160.24-2.30L160.24-2.30Q157.74 4.39 154.53 7.73L154.53 7.73L154.53 7.73Q151.32 11.07 146.06 11.07L146.06 11.07L146.06 11.07Q143.92 11.07 141.73 10.63L141.73 10.63L141.73 10.63Q139.54 10.20 137.75 9.44L137.75 9.44L137.75 0.20L144.79 0.20L144.79 0.71L144.79 0.71Q144.79 1.99 146.12 1.99L146.12 1.99L146.12 1.99Q147.29 1.99 147.90 0.87L147.90 0.87L139.84-19.99L137.90-19.99L137.90-28.36L153.05-28.36L153.05-19.99L151.32-19.99L153.97-12.04L156.42-19.99L154.68-19.99L154.68-28.36ZM214.10-31.31L214.10-39.68L230.42-39.68L230.42-31.31L228.38-31.31L220.78 0L205.53 0L200.89-22.03L200.38-22.03L195.48 0L180.23 0L172.13-31.31L170.09-31.31L170.09-39.68L188.96-39.68L188.96-31.31L187.02-31.31L189.01-18.31L189.52-18.31L194.36-39.68L209.05-39.68L213.54-18.31L214.05-18.31L216.04-31.31L214.10-31.31ZM243.58 0.71L243.58 0.71Q236.33 0.71 232.25-3.09L232.25-3.09L232.25-3.09Q228.17-6.89 228.17-14.18L228.17-14.18L228.17-14.18Q228.17-21.47 232.25-25.27L232.25-25.27L232.25-25.27Q236.33-29.07 243.58-29.07L243.58-29.07L243.58-29.07Q250.92-29.07 254.95-25.22L254.95-25.22L254.95-25.22Q258.98-21.37 258.98-14.18L258.98-14.18L258.98-14.18Q258.98-6.89 254.90-3.09L254.90-3.09L254.90-3.09Q250.82 0.71 243.58 0.71L243.58 0.71ZM243.58-8.36L243.58-8.36Q245.06-8.36 245.79-9.15L245.79-9.15L245.79-9.15Q246.53-9.95 246.53-11.63L246.53-11.63L246.53-16.73L246.53-16.73Q246.53-18.41 245.79-19.20L245.79-19.20L245.79-19.20Q245.06-19.99 243.58-19.99L243.58-19.99L243.58-19.99Q242.10-19.99 241.36-19.20L241.36-19.20L241.36-19.20Q240.62-18.41 240.62-16.73L240.62-16.73L240.62-11.63L240.62-11.63Q240.62-9.95 241.36-9.15L241.36-9.15L241.36-9.15Q242.10-8.36 243.58-8.36L243.58-8.36ZM282.39-29.07L282.39-29.07Q283.41-29.07 284.32-28.87L284.32-28.87L284.32-28.87Q285.24-28.66 285.86-28.36L285.86-28.36L285.86-18.62L285.86-18.62Q283.76-19.48 281.37-19.48L281.37-19.48L281.37-19.48Q278.15-19.48 276.42-17.80L276.42-17.80L276.42-17.80Q274.69-16.12 274.69-12.80L274.69-12.80L274.69-8.36L279.28-8.36L279.28 0L260.71 0L260.71-8.36L262.96-8.36L262.96-19.99L260.71-19.99L260.71-28.36L274.69-28.36L274.69-24.63L274.69-24.63Q276.11-26.78 277.95-27.92L277.95-27.92L277.95-27.92Q279.79-29.07 282.39-29.07L282.39-29.07ZM303.71 0.05L287.49 0.05L287.49-8.36L289.73-8.36L289.73-31.31L287.49-31.31L287.49-39.68L301.46-39.68L301.46-8.36L303.71-8.36L303.71 0.05ZM315.38 0.71L315.38 0.71Q310.18 0.71 307.56-3.16L307.56-3.16L307.56-3.16Q304.93-7.04 304.93-14.18L304.93-14.18L304.93-14.18Q304.93-21.32 307.56-25.19L307.56-25.19L307.56-25.19Q310.18-29.07 315.38-29.07L315.38-29.07L315.38-29.07Q317.99-29.07 320.00-27.80L320.00-27.80L320.00-27.80Q322.01-26.52 323.29-24.89L323.29-24.89L323.29-31.31L320.28-31.31L320.28-39.68L335.02-39.68L335.02-8.36L337.26-8.36L337.26 0L323.29 0L323.29-3.47L323.29-3.47Q322.01-1.84 320.00-0.56L320.00-0.56L320.00-0.56Q317.99 0.71 315.38 0.71L315.38 0.71ZM320.33-8.36L320.33-8.36Q321.81-8.36 322.55-9.15L322.55-9.15L322.55-9.15Q323.29-9.95 323.29-11.63L323.29-11.63L323.29-16.73L323.29-16.73Q323.29-18.41 322.55-19.20L322.55-19.20L322.55-19.20Q321.81-19.99 320.33-19.99L320.33-19.99L320.33-19.99Q318.85-19.99 318.11-19.20L318.11-19.20L318.11-19.20Q317.37-18.41 317.37-16.73L317.37-16.73L317.37-11.63L317.37-11.63Q317.37-9.95 318.11-9.15L318.11-9.15L318.11-9.15Q318.85-8.36 320.33-8.36L320.33-8.36Z" fill="url(#editing-shiny-gradient)"></path></g></g><g filter="url(#editing-shiny2)"><g transform="translate(81.23374086618423, 100.72999954223633)"><path d="M20.81 0.71L20.81 0.71Q11.17 0.71 5.94-4.18L5.94-4.18L5.94-4.18Q0.71-9.08 0.71-19.84L0.71-19.84L0.71-19.84Q0.71-40.39 20.71-40.39L20.71-40.39L20.71-40.39Q25.55-40.39 29.71-39.22L29.71-39.22L29.71-39.22Q33.86-38.05 35.90-36.62L35.90-36.62L35.90-23.87L23.66-23.87L23.66-27.54L23.66-27.54Q23.66-29.48 22.80-30.40L22.80-30.40L22.80-30.40Q21.93-31.31 20.20-31.31L20.20-31.31L20.20-31.31Q18.46-31.31 17.60-30.40L17.60-30.40L17.60-30.40Q16.73-29.48 16.73-27.54L16.73-27.54L16.73-12.14L16.73-12.14Q16.73-10.20 17.60-9.28L17.60-9.28L17.60-9.28Q18.46-8.36 20.20-8.36L20.20-8.36L20.20-8.36Q21.93-8.36 22.80-9.28L22.80-9.28L22.80-9.28Q23.66-10.20 23.66-12.14L23.66-12.14L23.66-16.27L35.90-16.27L35.90-3.06L35.90-3.06Q33.81-1.63 29.71-0.46L29.71-0.46L29.71-0.46Q25.60 0.71 20.81 0.71L20.81 0.71ZM65.23-8.36L67.47-8.36L67.47 0L54.01 0L54.01-3.47L54.01-3.47Q52.89-1.84 50.87-0.56L50.87-0.56L50.87-0.56Q48.86 0.71 45.95 0.71L45.95 0.71L45.95 0.71Q42.13 0.71 39.93-1.33L39.93-1.33L39.93-1.33Q37.74-3.37 37.74-7.09L37.74-7.09L37.74-7.09Q37.74-16.73 54.11-16.98L54.11-16.98L54.11-16.98Q53.96-18.72 52.79-19.35L52.79-19.35L52.79-19.35Q51.61-19.99 48.81-19.99L48.81-19.99L48.81-19.99Q46.51-19.99 43.89-19.51L43.89-19.51L43.89-19.51Q41.26-19.02 39.07-18.21L39.07-18.21L39.07-27.59L39.07-27.59Q41.77-28.25 44.93-28.66L44.93-28.66L44.93-28.66Q48.09-29.07 51.10-29.07L51.10-29.07L51.10-29.07Q58.70-29.07 61.97-26.32L61.97-26.32L61.97-26.32Q65.23-23.56 65.23-17.80L65.23-17.80L65.23-8.36ZM54.01-11.63L54.01-11.93L54.01-11.93Q51.71-11.93 50.46-11.32L50.46-11.32L50.46-11.32Q49.22-10.71 49.22-9.28L49.22-9.28L49.22-9.28Q49.22-8.42 49.75-7.88L49.75-7.88L49.75-7.88Q50.29-7.34 51.26-7.34L51.26-7.34L51.26-7.34Q52.58-7.34 53.30-8.47L53.30-8.47L53.30-8.47Q54.01-9.59 54.01-11.63L54.01-11.63ZM100.73-8.36L102.97-8.36L102.97 0L86.85 0L86.85-8.36L89.00-8.36L89.00-16.73L89.00-16.73Q89.00-18.41 88.28-19.20L88.28-19.20L88.28-19.20Q87.57-19.99 86.14-19.99L86.14-19.99L86.14-19.99Q83.08-19.99 83.08-16.73L83.08-16.73L83.08-8.36L85.22-8.36L85.22 0L69.11 0L69.11-8.36L71.35-8.36L71.35-19.99L69.11-19.99L69.11-28.36L83.08-28.36L83.08-24.38L83.08-24.38Q86.75-29.07 92.26-29.07L92.26-29.07L92.26-29.07Q96.49-29.07 98.61-26.42L98.61-26.42L98.61-26.42Q100.73-23.77 100.73-19.13L100.73-19.13L100.73-8.36ZM114.65 0.71L114.65 0.71Q109.45 0.71 106.82-3.16L106.82-3.16L106.82-3.16Q104.19-7.04 104.19-14.18L104.19-14.18L104.19-14.18Q104.19-21.32 106.82-25.19L106.82-25.19L106.82-25.19Q109.45-29.07 114.65-29.07L114.65-29.07L114.65-29.07Q117.25-29.07 119.26-27.80L119.26-27.80L119.26-27.80Q121.28-26.52 122.55-24.89L122.55-24.89L122.55-31.31L119.54-31.31L119.54-39.68L134.28-39.68L134.28-8.36L136.53-8.36L136.53 0L122.55 0L122.55-3.47L122.55-3.47Q121.28-1.84 119.26-0.56L119.26-0.56L119.26-0.56Q117.25 0.71 114.65 0.71L114.65 0.71ZM119.60-8.36L119.60-8.36Q121.07-8.36 121.81-9.15L121.81-9.15L121.81-9.15Q122.55-9.95 122.55-11.63L122.55-11.63L122.55-16.73L122.55-16.73Q122.55-18.41 121.81-19.20L121.81-19.20L121.81-19.20Q121.07-19.99 119.60-19.99L119.60-19.99L119.60-19.99Q118.12-19.99 117.38-19.20L117.38-19.20L117.38-19.20Q116.64-18.41 116.64-16.73L116.64-16.73L116.64-11.63L116.64-11.63Q116.64-9.95 117.38-9.15L117.38-9.15L117.38-9.15Q118.12-8.36 119.60-8.36L119.60-8.36ZM154.68-28.36L168.86-28.36L168.86-19.99L166.92-19.99L160.24-2.30L160.24-2.30Q157.74 4.39 154.53 7.73L154.53 7.73L154.53 7.73Q151.32 11.07 146.06 11.07L146.06 11.07L146.06 11.07Q143.92 11.07 141.73 10.63L141.73 10.63L141.73 10.63Q139.54 10.20 137.75 9.44L137.75 9.44L137.75 0.20L144.79 0.20L144.79 0.71L144.79 0.71Q144.79 1.99 146.12 1.99L146.12 1.99L146.12 1.99Q147.29 1.99 147.90 0.87L147.90 0.87L139.84-19.99L137.90-19.99L137.90-28.36L153.05-28.36L153.05-19.99L151.32-19.99L153.97-12.04L156.42-19.99L154.68-19.99L154.68-28.36ZM214.10-31.31L214.10-39.68L230.42-39.68L230.42-31.31L228.38-31.31L220.78 0L205.53 0L200.89-22.03L200.38-22.03L195.48 0L180.23 0L172.13-31.31L170.09-31.31L170.09-39.68L188.96-39.68L188.96-31.31L187.02-31.31L189.01-18.31L189.52-18.31L194.36-39.68L209.05-39.68L213.54-18.31L214.05-18.31L216.04-31.31L214.10-31.31ZM243.58 0.71L243.58 0.71Q236.33 0.71 232.25-3.09L232.25-3.09L232.25-3.09Q228.17-6.89 228.17-14.18L228.17-14.18L228.17-14.18Q228.17-21.47 232.25-25.27L232.25-25.27L232.25-25.27Q236.33-29.07 243.58-29.07L243.58-29.07L243.58-29.07Q250.92-29.07 254.95-25.22L254.95-25.22L254.95-25.22Q258.98-21.37 258.98-14.18L258.98-14.18L258.98-14.18Q258.98-6.89 254.90-3.09L254.90-3.09L254.90-3.09Q250.82 0.71 243.58 0.71L243.58 0.71ZM243.58-8.36L243.58-8.36Q245.06-8.36 245.79-9.15L245.79-9.15L245.79-9.15Q246.53-9.95 246.53-11.63L246.53-11.63L246.53-16.73L246.53-16.73Q246.53-18.41 245.79-19.20L245.79-19.20L245.79-19.20Q245.06-19.99 243.58-19.99L243.58-19.99L243.58-19.99Q242.10-19.99 241.36-19.20L241.36-19.20L241.36-19.20Q240.62-18.41 240.62-16.73L240.62-16.73L240.62-11.63L240.62-11.63Q240.62-9.95 241.36-9.15L241.36-9.15L241.36-9.15Q242.10-8.36 243.58-8.36L243.58-8.36ZM282.39-29.07L282.39-29.07Q283.41-29.07 284.32-28.87L284.32-28.87L284.32-28.87Q285.24-28.66 285.86-28.36L285.86-28.36L285.86-18.62L285.86-18.62Q283.76-19.48 281.37-19.48L281.37-19.48L281.37-19.48Q278.15-19.48 276.42-17.80L276.42-17.80L276.42-17.80Q274.69-16.12 274.69-12.80L274.69-12.80L274.69-8.36L279.28-8.36L279.28 0L260.71 0L260.71-8.36L262.96-8.36L262.96-19.99L260.71-19.99L260.71-28.36L274.69-28.36L274.69-24.63L274.69-24.63Q276.11-26.78 277.95-27.92L277.95-27.92L277.95-27.92Q279.79-29.07 282.39-29.07L282.39-29.07ZM303.71 0.05L287.49 0.05L287.49-8.36L289.73-8.36L289.73-31.31L287.49-31.31L287.49-39.68L301.46-39.68L301.46-8.36L303.71-8.36L303.71 0.05ZM315.38 0.71L315.38 0.71Q310.18 0.71 307.56-3.16L307.56-3.16L307.56-3.16Q304.93-7.04 304.93-14.18L304.93-14.18L304.93-14.18Q304.93-21.32 307.56-25.19L307.56-25.19L307.56-25.19Q310.18-29.07 315.38-29.07L315.38-29.07L315.38-29.07Q317.99-29.07 320.00-27.80L320.00-27.80L320.00-27.80Q322.01-26.52 323.29-24.89L323.29-24.89L323.29-31.31L320.28-31.31L320.28-39.68L335.02-39.68L335.02-8.36L337.26-8.36L337.26 0L323.29 0L323.29-3.47L323.29-3.47Q322.01-1.84 320.00-0.56L320.00-0.56L320.00-0.56Q317.99 0.71 315.38 0.71L315.38 0.71ZM320.33-8.36L320.33-8.36Q321.81-8.36 322.55-9.15L322.55-9.15L322.55-9.15Q323.29-9.95 323.29-11.63L323.29-11.63L323.29-16.73L323.29-16.73Q323.29-18.41 322.55-19.20L322.55-19.20L322.55-19.20Q321.81-19.99 320.33-19.99L320.33-19.99L320.33-19.99Q318.85-19.99 318.11-19.20L318.11-19.20L318.11-19.20Q317.37-18.41 317.37-16.73L317.37-16.73L317.37-11.63L317.37-11.63Q317.37-9.95 318.11-9.15L318.11-9.15L318.11-9.15Q318.85-8.36 320.33-8.36L320.33-8.36Z" fill="url(#editing-shiny-gradient2)"></path></g></g><style>text {
  font-size: 64px;
  font-family: Arial Black;
  dominant-baseline: central;
  text-anchor: middle;
}</style></svg>