<svg id="visual" viewBox="0 0 1920 1080" width="1920" height="1080" xmlns="http://www.w3.org/2000/svg" xmlns:xlink="http://www.w3.org/1999/xlink" version="1.1"><rect x="0" y="0" width="1920" height="1080" fill="#001220"></rect><path d="M0 363L45.7 359C91.3 355 182.7 347 274.2 347.2C365.7 347.3 457.3 355.7 548.8 346.8C640.3 338 731.7 312 823 312.7C914.3 313.3 1005.7 340.7 1097 361.5C1188.3 382.3 1279.7 396.7 1371.2 389.3C1462.7 382 1554.3 353 1645.8 336.5C1737.3 320 1828.7 316 1874.3 314L1920 312L1920 0L1874.3 0C1828.7 0 1737.3 0 1645.8 0C1554.3 0 1462.7 0 1371.2 0C1279.7 0 1188.3 0 1097 0C1005.7 0 914.3 0 823 0C731.7 0 640.3 0 548.8 0C457.3 0 365.7 0 274.2 0C182.7 0 91.3 0 45.7 0L0 0Z" fill="#fa7268"></path><path d="M0 288L45.7 276.2C91.3 264.3 182.7 240.7 274.2 232.5C365.7 224.3 457.3 231.7 548.8 236.5C640.3 241.3 731.7 243.7 823 249C914.3 254.3 1005.7 262.7 1097 281.8C1188.3 301 1279.7 331 1371.2 335.2C1462.7 339.3 1554.3 317.7 1645.8 302.5C1737.3 287.3 1828.7 278.7 1874.3 274.3L1920 270L1920 0L1874.3 0C1828.7 0 1737.3 0 1645.8 0C1554.3 0 1462.7 0 1371.2 0C1279.7 0 1188.3 0 1097 0C1005.7 0 914.3 0 823 0C731.7 0 640.3 0 548.8 0C457.3 0 365.7 0 274.2 0C182.7 0 91.3 0 45.7 0L0 0Z" fill="#ef5f67"></path><path d="M0 225L45.7 227.5C91.3 230 182.7 235 274.2 223.7C365.7 212.3 457.3 184.7 548.8 177.8C640.3 171 731.7 185 823 201.7C914.3 218.3 1005.7 237.7 1097 245.3C1188.3 253 1279.7 249 1371.2 237.2C1462.7 225.3 1554.3 205.7 1645.8 206.5C1737.3 207.3 1828.7 228.7 1874.3 239.3L1920 250L1920 0L1874.3 0C1828.7 0 1737.3 0 1645.8 0C1554.3 0 1462.7 0 1371.2 0C1279.7 0 1188.3 0 1097 0C1005.7 0 914.3 0 823 0C731.7 0 640.3 0 548.8 0C457.3 0 365.7 0 274.2 0C182.7 0 91.3 0 45.7 0L0 0Z" fill="#e34c67"></path><path d="M0 203L45.7 193.5C91.3 184 182.7 165 274.2 164C365.7 163 457.3 180 548.8 181.5C640.3 183 731.7 169 823 162.3C914.3 155.7 1005.7 156.3 1097 150.3C1188.3 144.3 1279.7 131.7 1371.2 134.3C1462.7 137 1554.3 155 1645.8 161.3C1737.3 167.7 1828.7 162.3 1874.3 159.7L1920 157L1920 0L1874.3 0C1828.7 0 1737.3 0 1645.8 0C1554.3 0 1462.7 0 1371.2 0C1279.7 0 1188.3 0 1097 0C1005.7 0 914.3 0 823 0C731.7 0 640.3 0 548.8 0C457.3 0 365.7 0 274.2 0C182.7 0 91.3 0 45.7 0L0 0Z" fill="#d53867"></path><path d="M0 53L45.7 58C91.3 63 182.7 73 274.2 86.5C365.7 100 457.3 117 548.8 121.7C640.3 126.3 731.7 118.7 823 115C914.3 111.3 1005.7 111.7 1097 102.5C1188.3 93.3 1279.7 74.7 1371.2 74.3C1462.7 74 1554.3 92 1645.8 104.2C1737.3 116.3 1828.7 122.7 1874.3 125.8L1920 129L1920 0L1874.3 0C1828.7 0 1737.3 0 1645.8 0C1554.3 0 1462.7 0 1371.2 0C1279.7 0 1188.3 0 1097 0C1005.7 0 914.3 0 823 0C731.7 0 640.3 0 548.8 0C457.3 0 365.7 0 274.2 0C182.7 0 91.3 0 45.7 0L0 0Z" fill="#c62368"></path></svg>